<svg width="300" height="300" viewBox="0 0 300 300" fill="none" xmlns="http://www.w3.org/2000/svg">
<circle cx="150" cy="150" r="150" fill="#6F34FE"/>
<path d="M71.475 135.585C71.475 132.762 71.9883 130.14 73.015 127.72C74.0783 125.3 75.49 123.192 77.25 121.395C79.0467 119.598 81.155 118.205 83.575 117.215C85.995 116.188 88.5983 115.693 91.385 115.73C94.355 115.767 97.0867 116.372 99.58 117.545C102.11 118.718 104.292 120.332 106.125 122.385C106.235 122.532 106.272 122.697 106.235 122.88C106.235 123.063 106.162 123.21 106.015 123.32L101.67 127.005C101.523 127.115 101.358 127.17 101.175 127.17C100.992 127.133 100.845 127.042 100.735 126.895C99.525 125.502 98.095 124.402 96.445 123.595C94.795 122.752 93.0167 122.348 91.11 122.385C89.3867 122.422 87.755 122.807 86.215 123.54C84.675 124.237 83.3367 125.208 82.2 126.455C81.0633 127.665 80.165 129.077 79.505 130.69C78.845 132.303 78.515 134.027 78.515 135.86C78.515 137.693 78.8633 139.417 79.56 141.03C80.2567 142.643 81.1917 144.055 82.365 145.265C83.5383 146.475 84.895 147.428 86.435 148.125C87.975 148.785 89.625 149.115 91.385 149.115C93.2183 149.078 94.9417 148.657 96.555 147.85C98.1683 147.043 99.5617 145.943 100.735 144.55C100.845 144.403 100.992 144.33 101.175 144.33C101.358 144.293 101.523 144.348 101.67 144.495L106.015 148.18C106.162 148.29 106.235 148.437 106.235 148.62C106.272 148.803 106.235 148.968 106.125 149.115C104.255 151.205 102.037 152.855 99.47 154.065C96.9033 155.238 94.0983 155.807 91.055 155.77C88.305 155.77 85.72 155.257 83.3 154.23C80.9167 153.167 78.845 151.737 77.085 149.94C75.325 148.107 73.95 145.962 72.96 143.505C71.97 141.048 71.475 138.408 71.475 135.585ZM112.439 154.34V117.16C112.439 116.977 112.494 116.83 112.604 116.72C112.75 116.573 112.915 116.5 113.099 116.5H118.764C119.24 116.5 119.479 116.72 119.479 117.16V132.285H135.264V117.16C135.264 116.977 135.319 116.83 135.429 116.72C135.575 116.573 135.74 116.5 135.924 116.5H141.644C141.827 116.5 141.974 116.573 142.084 116.72C142.23 116.83 142.304 116.977 142.304 117.16V154.34C142.304 154.523 142.23 154.688 142.084 154.835C141.974 154.945 141.827 155 141.644 155H135.924C135.74 155 135.575 154.945 135.429 154.835C135.319 154.688 135.264 154.523 135.264 154.34V139.27H119.479V154.34C119.479 154.78 119.24 155 118.764 155H113.099C112.915 155 112.75 154.945 112.604 154.835C112.494 154.688 112.439 154.523 112.439 154.34ZM147.063 116.39H154.048C154.781 116.39 155.386 116.683 155.863 117.27L167.138 131.955L178.413 117.27C178.889 116.683 179.494 116.39 180.228 116.39H187.213C187.433 116.39 187.579 116.482 187.653 116.665C187.763 116.848 187.744 117.013 187.598 117.16L159.328 154.01C158.851 154.597 158.246 154.89 157.513 154.89H150.528C150.344 154.89 150.198 154.817 150.088 154.67C149.978 154.487 149.996 154.303 150.143 154.12L162.573 137.895L146.678 117.16C146.531 117.013 146.513 116.848 146.623 116.665C146.733 116.482 146.879 116.39 147.063 116.39Z" fill="white"/>
<path d="M122.015 156.05C122.015 155.867 122.07 155.72 122.18 155.61C122.327 155.463 122.492 155.39 122.675 155.39H128.34C128.523 155.39 128.688 155.463 128.835 155.61C128.982 155.72 129.055 155.867 129.055 156.05V182.01L148.8 156.27C149.277 155.683 149.882 155.39 150.615 155.39H155.84C156.023 155.39 156.17 155.463 156.28 155.61C156.427 155.72 156.5 155.867 156.5 156.05V182.01L176.3 156.27C176.777 155.683 177.382 155.39 178.115 155.39H185.1C185.32 155.39 185.467 155.482 185.54 155.665C185.65 155.848 185.632 156.013 185.485 156.16L157.215 193.01C156.738 193.597 156.133 193.89 155.4 193.89H150.175C149.735 193.89 149.515 193.67 149.515 193.23V167.27L129.715 193.01C129.238 193.597 128.633 193.89 127.9 193.89H122.675C122.492 193.89 122.327 193.835 122.18 193.725C122.07 193.578 122.015 193.413 122.015 193.23V156.05ZM190.566 155.5H196.231C196.707 155.5 196.946 155.72 196.946 156.16V193.34C196.946 193.78 196.707 194 196.231 194H190.566C190.382 194 190.217 193.945 190.071 193.835C189.961 193.688 189.906 193.523 189.906 193.34V156.16C189.906 155.977 189.961 155.83 190.071 155.72C190.217 155.573 190.382 155.5 190.566 155.5ZM205.551 155.5H234.591C235.031 155.5 235.251 155.72 235.251 156.16V164.245C235.251 164.758 235.104 165.217 234.811 165.62L227.771 174.75L234.811 183.88C235.104 184.283 235.251 184.742 235.251 185.255V193.34C235.251 193.78 235.031 194 234.591 194H205.551C205.368 194 205.203 193.945 205.056 193.835C204.946 193.688 204.891 193.523 204.891 193.34V156.16C204.891 155.977 204.946 155.83 205.056 155.72C205.203 155.573 205.368 155.5 205.551 155.5ZM228.046 187.015L218.971 175.19C218.788 174.897 218.788 174.622 218.971 174.365L228.046 162.485H211.931V187.015H228.046Z" fill="white"/>
</svg>
