<svg width="300" height="300" viewBox="0 0 300 300" fill="none" xmlns="http://www.w3.org/2000/svg">
<circle cx="150" cy="150" r="150" fill="#151414"/>
<path d="M122.032 88.928C121.605 88.928 121.221 89.1413 120.88 89.568V116C120.88 117.792 120.987 119.243 121.2 120.352C121.413 121.419 121.883 122.485 122.608 123.552C124.016 125.6 127.237 126.624 132.272 126.624V128.48C132.059 128.48 130.48 129.077 127.536 130.272C124.592 131.424 122.8 132 122.16 132C120.027 132 118 130.784 116.08 128.352C114.16 125.877 113.2 123.275 113.2 120.544V88.608C113.2 88.3093 115.632 87.264 120.496 85.472C125.403 83.6373 128.219 82.72 128.944 82.72C129.2 82.72 129.499 83.3387 129.84 84.576C130.181 85.8133 130.565 87.3067 130.992 89.056C131.461 90.8053 131.931 92.1067 132.4 92.96C132.912 93.7707 133.851 94.176 135.216 94.176V95.456C134.277 95.8827 132.677 96.6507 130.416 97.76C128.197 98.8267 127.003 99.36 126.832 99.36C126.192 99.36 125.381 97.632 124.4 94.176C123.419 90.6773 122.629 88.928 122.032 88.928ZM152.515 105.824V94.56C152.515 92.9813 152.344 91.8507 152.003 91.168C151.662 90.4853 150.958 90.144 149.891 90.144V88.16L163.011 82.656L164.035 84.704C163.096 84.704 162.2 85.2587 161.347 86.368C160.579 87.4347 160.195 89.056 160.195 91.232V105.824H163.395V107.36L160.195 108.96V122.528C160.195 125.131 161.07 126.603 162.819 126.944V128.352L156.355 132C155.416 131.616 154.542 130.997 153.731 130.144C152.92 129.248 152.515 128.416 152.515 127.648V108.96H146.755V122.144C146.755 123.723 146.926 124.853 147.267 125.536C147.608 126.219 148.312 126.56 149.379 126.56V128.544L136.259 134.048L135.235 132C136.174 132 137.07 131.445 137.923 130.336C138.691 129.269 139.075 127.648 139.075 125.472V92.192C139.075 89.5893 138.2 88.1173 136.451 87.776V86.368L142.915 82.72C143.854 83.104 144.728 83.744 145.539 84.64C146.35 85.4933 146.755 86.304 146.755 87.072V107.552L149.955 105.824H152.515ZM160.943 87.968V86.624L167.599 82.72H170.095L177.455 105.824L178.479 105.376V92C178.479 90.7627 178.266 89.8027 177.839 89.12C177.412 88.3947 176.986 87.968 176.559 87.84L175.855 87.712V86.304L181.999 82.656C182.34 82.656 183.066 83.1467 184.175 84.128C185.284 85.0667 185.839 85.9627 185.839 86.816V105.12C185.839 105.845 183.45 107.061 178.671 108.768V120.8C178.671 122.208 178.82 123.189 179.119 123.744C179.46 124.256 180.164 124.512 181.231 124.512V126.304L168.175 132L167.151 129.952C168.986 129.525 170.116 128.501 170.543 126.88C170.842 125.728 170.991 124.341 170.991 122.72V109.216L164.591 90.016C164.378 89.376 164.058 88.9067 163.631 88.608C163.204 88.2667 162.82 88.0747 162.479 88.032C162.138 87.9893 161.626 87.968 160.943 87.968ZM126.64 174.128C126.64 171.781 125.595 170.395 123.504 169.968V168.56C128.112 166 130.437 164.72 130.48 164.72C130.864 164.72 131.547 165.147 132.528 166C133.509 166.811 134.107 167.685 134.32 168.624C134.405 168.539 135.707 167.877 138.224 166.64C140.741 165.36 142.021 164.72 142.064 164.72C142.917 164.72 143.856 165.232 144.88 166.256C146.843 168.219 147.824 170.843 147.824 174.128V208.048C147.824 208.432 145.541 209.52 140.976 211.312C136.411 213.104 133.573 214 132.464 214C130.459 214 128.795 212.677 127.472 210.032C122.779 212.677 119.813 214 118.576 214C117.339 214 116.123 213.104 114.928 211.312C113.776 209.477 113.2 207.792 113.2 206.256V174.128C113.2 171.781 112.155 170.395 110.064 169.968V168.56L117.04 164.656C117.979 165.04 118.853 165.68 119.664 166.576C120.475 167.429 120.88 168.219 120.88 168.944V201.52C120.88 205.573 122.139 207.6 124.656 207.6C125.296 207.6 125.957 207.472 126.64 207.216V174.128ZM134.384 202.16C134.384 203.525 134.64 204.805 135.152 206C135.707 207.152 136.453 207.728 137.392 207.728C138.331 207.728 139.227 207.536 140.08 207.152V176.432C140.08 174.213 139.632 172.741 138.736 172.016C137.84 171.248 136.389 170.843 134.384 170.8V202.16ZM154.2 205.808V176.56C154.2 174.981 154.029 173.851 153.688 173.168C153.347 172.485 152.643 172.144 151.576 172.144V170.16L164.696 164.656L165.72 166.704C164.781 166.704 163.885 167.259 163.032 168.368C162.264 169.435 161.88 171.056 161.88 173.232V203.312C161.88 204.464 162.072 205.296 162.456 205.808C162.84 206.277 163.501 206.512 164.44 206.512V208.304C155.779 212.101 151.427 214 151.384 214L150.36 211.952C150.701 211.952 151.107 211.803 151.576 211.504C152.088 211.205 152.515 210.864 152.856 210.48C153.752 209.456 154.2 207.899 154.2 205.808ZM175.943 169.2C180.764 166.341 183.345 164.912 183.687 164.912C184.071 164.912 184.689 165.253 185.543 165.936C186.396 166.576 187.249 167.493 188.103 168.688C188.956 169.84 189.383 170.971 189.383 172.08V182.832C189.383 183.813 187.633 185.051 184.135 186.544C185.031 186.8 186.14 187.76 187.463 189.424C188.785 191.045 189.447 192.517 189.447 193.84V208.048C189.447 208.389 187.1 209.477 182.407 211.312C177.756 213.104 174.897 214 173.831 214C172.807 214 171.612 213.083 170.247 211.248C168.924 209.413 168.263 207.216 168.263 204.656V173.936C168.263 171.632 167.388 170.288 165.639 169.904V168.496L172.103 164.848C173.041 165.232 173.916 165.872 174.727 166.768C175.537 167.621 175.943 168.432 175.943 169.2ZM179.207 208.112C180.017 208.112 180.849 207.771 181.703 207.088V197.168C181.703 194.011 180.615 192.432 178.439 192.432C177.585 192.432 176.753 192.752 175.943 193.392V203.376C175.943 206.533 177.031 208.112 179.207 208.112ZM181.703 175.6C181.703 174.448 181.447 173.467 180.935 172.656C180.465 171.803 179.761 171.376 178.823 171.376C177.927 171.376 176.967 172.016 175.943 173.296V186.544C179.783 185.477 181.703 183.173 181.703 179.632V175.6Z" fill="white"/>
</svg>
